# xmcd
# 
# Track frame offsets:
#     180
#     24477
#     48707
#     72929
#     112170
#     128748
#     144527
#     148319
#     171198
#     176664
#     193217
#     208957
#     212739
#     235087
# 
# Disc length: 3206
# 
# Revision: 7
# Processed by: cddbd v1.5.2PL0 Copyright (c) Steve Scherf et al.
# Submitted via: fre:ac v1.0.17
# 
DISCID=e50c840e
DTITLE=넥스트 - Crom's Techno Works-CD-02
DYEAR=1998
DGENRE=Techno
TTITLE0=It's Alright
TTITLE1=일상으로으 초대 (Radio Mix)
TTITLE2=일상으로으 초대 (More Beat Mix)
TTITLE3=일상으로으 초대 (Extended Mix)
TTITLE4=매미의 꿈 Part1 - 나의 시간은 언제쯤 오는가
TTITLE5=매미의 꿈 Part2 - A Long cold winter's sleep
TTITLE6=매미의 꿈 Part3 - The virgin flight
TTITLE7=매미의 꿈 Part4 - 매미의 꿈
TTITLE8=매미의 꿈 Part5 - 당신을 위로하고 싶은 마음에서 나온 가벼운 성의
TTITLE9=매미의 꿈 (Crom's flat Mix) Part1 - 나의 시간은 언제쯤 오는가
TTITLE10=매미의 꿈 (Crom's flat Mix) Part2 - A Long cold winter's sleep
TTITLE11=매미의 꿈 (Crom's flat Mix) Part3 - The virgin flight
TTITLE12=매미의 꿈 (Crom's flat Mix) Part4 - 매미의 꿈
TTITLE13=매미의 꿈 (Crom's flat Mix) Part5 - 당신을 위로하고 싶은 마음에서 나온 가벼운 성의
EXTD=YEAR: 1998
EXTT0=
EXTT1=
EXTT2=
EXTT3=
EXTT4=
EXTT5=
EXTT6=
EXTT7=
EXTT8=
EXTT9=
EXTT10=
EXTT11=
EXTT12=
EXTT13=
PLAYORDER=
